<svg xmlns="http://www.w3.org/2000/svg" viewBox="0 0 1024 1024">
  <rect width="1024" height="1024" rx="220" fill="#ffffff"/>
  <g fill="#087f6f">
    <path fill-rule="evenodd" d="M397 142h230c72 0 130 58 130 130v345c0 18-15 33-33 33s-33-15-33-33V272c0-35-29-64-64-64H397c-35 0-64 29-64 64v345c0 18-15 33-33 33s-33-15-33-33V272c0-72 58-130 130-130Zm95 47h40c12 0 22 10 22 22s-10 22-22 22h-40c-12 0-22-10-22-22s10-22 22-22Z" clip-rule="evenodd"/>
    <path d="M507 264c0-12 10-22 22-22s22 10 22 22v46l53-8c14-2 27 9 27 23v34c0 14-13 25-27 23l-53-8v41l107 98c17 16 6 44-17 44h-22v176c0 14-11 25-25 25h-85v-92c0-36-29-65-65-65s-65 29-65 65v92h-85c-14 0-25-11-25-25V557h-22c-23 0-34-28-17-44l126-116c5-5 12-8 19-8h110v-125Z"/>
    <circle cx="512" cy="500" r="52" fill="#ffffff"/>
    <path d="M507 465c0-9 7-16 16-16s16 7 16 16v24h21c9 0 16 7 16 16s-7 16-16 16h-37c-9 0-16-7-16-16v-40Z"/>
    <rect x="350" y="585" width="27" height="51" rx="4" fill="#ffffff"/>
    <rect x="392" y="585" width="27" height="51" rx="4" fill="#ffffff"/>
    <rect x="605" y="585" width="27" height="51" rx="4" fill="#ffffff"/>
    <rect x="647" y="585" width="27" height="51" rx="4" fill="#ffffff"/>
    <circle cx="255" cy="569" r="57"/>
    <circle cx="769" cy="569" r="57"/>
    <circle cx="512" cy="707" r="48"/>
    <path d="M219 648c57 0 106 38 121 92 20 73 91 127 172 127s152-54 172-127c15-54 64-92 121-92 26 0 47 21 47 47 0 97-199 218-310 256a91 91 0 0 1-60 0C371 913 172 792 172 695c0-26 21-47 47-47Z"/>
    <path d="M465 797c8-45 47-79 93-79s85 34 93 79l-139 99-47-99Z"/>
  </g>
</svg>
